<?xml version="1.0" encoding="utf-8"?>
<!-- Generator: Adobe Illustrator 24.1.3, SVG Export Plug-In . SVG Version: 6.00 Build 0)  -->
<svg version="1.1" id="logo" xmlns="http://www.w3.org/2000/svg" xmlns:xlink="http://www.w3.org/1999/xlink" x="0px" y="0px"
	 viewBox="0 0 1500 1500" style="enable-background:new 0 0 1500 1500;" xml:space="preserve">
<style type="text/css">
	.st0{fill:#445CA6;}
	.st1{fill:#4560A7;}
	.st2{fill:#8E74B1;}
	.st3{fill:#947BB5;}
	.st4{fill:#9784BC;}
	.st5{fill:#926FB1;}
	.st6{fill:#9069A8;}
	.st7{fill:#874A9A;}
	.st8{fill:#61418A;}
	.st9{fill:#735299;}
	.st10{fill:#7D66AA;}
	.st11{fill:#464C98;}
	.st12{fill:#657DBB;}
	.st13{fill:#5867AA;}
	.st14{fill:#5D75B3;}
	.st15{fill:#5A92C5;}
	.st16{fill:#48819C;}
	.st17{fill:#2B7091;}
	.st18{fill:#72BEBE;}
	.st19{fill:#72B8D2;}
	.st20{fill:#63B8BF;}
	.st21{fill:#6ABAB7;}
	.st22{fill:#60AAB5;}
	.st23{fill:#46AE6F;}
	.st24{fill:#52A587;}
	.st25{fill:#1B9D6F;}
	.st26{fill:#5DB5A7;}
	.st27{fill:none;stroke:#FFFFFF;stroke-width:0.5;stroke-linecap:round;stroke-miterlimit:10;}
	.st28{fill:none;stroke:#FFFFFF;stroke-width:0.5;stroke-linecap:round;stroke-linejoin:round;}
	.st29{fill:#FFFFFF;}
	.st30{fill:#7291D4;}
	.st31{fill:#6AA4CA;}
	.st32{fill:#B26DAC;}
	.st33{fill:#754D8C;}
	.st34{fill:#6D5B97;}
	.st35{fill:#475DA8;}
</style>
<g>
	<g>
		<path class="st0" d="M824.7,718.8c-25-21.5-57.6-34.5-93.2-34.5v-67C774.2,653.6,804,688.4,824.7,718.8z"/>
		<path class="st1" d="M731.5,684.2c-35.6,0-68.2,13-93.2,34.6c0,0,0,0,0,0c20.8-30.3,50.6-65,93.2-101.5V684.2z"/>
		<path class="st2" d="M961.1,642.9l-86,47.8c-5.7-49.3-19.4-93.3-36.3-130.3c21,3.8,60.6,14.4,116.2,62.8
			C957.5,629.9,959.6,636.5,961.1,642.9z"/>
		<path class="st3" d="M904.8,538.5c22.7,27.4,40.1,56.9,50.3,84.7c-55.6-48.3-95.2-59-116.2-62.8
			C861.2,554.3,884.7,546.1,904.8,538.5z"/>
		<path class="st4" d="M735.7,433.5c65.9,10.1,126.6,53.7,169.1,105c-20.1,7.6-43.6,15.8-65.9,21.9
			C804.8,485.8,757.6,439.2,735.7,433.5z"/>
		<path class="st5" d="M956,517.6c0,0-21.9,9.8-51.2,20.9c-42.4-51.2-103.2-94.9-169.1-105c-1.5-0.4-2.9-0.6-4.2-0.6
			C817.6,432.9,896.1,464.9,956,517.6z"/>
		<path class="st6" d="M961.1,522.2c0,0,0,38,0,120.7c-1.6-6.4-3.6-13-6.1-19.7c-10.2-27.8-27.6-57.3-50.3-84.7
			c29.3-11.1,51.2-20.9,51.2-20.9C957.7,519.1,959.4,520.6,961.1,522.2z"/>
		<path class="st7" d="M1066.7,716.1c-0.8-0.9-36.5-41.5-105.6-73.2c0-82.7,0-120.7,0-120.7C1015.7,572.2,1053.9,639.9,1066.7,716.1
			z"/>
		<path class="st8" d="M1066.7,716.1c3.1,18.4,4.7,37.4,4.7,56.7s-1.6,38.2-4.7,56.6c0,0,0,0,0,0c-0.4-1.7-24.2-113-105.6-186.5
			C1030.2,674.6,1065.9,715.2,1066.7,716.1z"/>
		<path class="st9" d="M1066.7,829.4c-18.1-36.3-55.6-61.3-98.9-61.3c-2.3,0-4.5,0.1-6.7,0.2l0-0.2c5.2-69.3,0-125.3,0-125.3
			C1042.5,716.5,1066.4,827.7,1066.7,829.4z"/>
		<path class="st10" d="M961.1,642.9c0,0,5.2,55.9,0,125.3l0,0.2c-38.2,2.3-71.1,24-89.1,55.3c3.9-25.3,6-54.4,6-82.9
			c0-17.2-1-33.9-2.9-50L961.1,642.9z"/>
		<path class="st11" d="M824.7,718.8L824.7,718.8l50.5-28.1c1.9,16.1,2.9,32.8,2.9,50c0,28.5-2.1,57.7-6,82.9c0,0,0,0,0,0h0
			c0,0,0,0,0,0C871.4,821.9,866.1,779.3,824.7,718.8z"/>
		<path class="st12" d="M824.7,718.8c41.4,60.5,46.7,103.2,47.3,104.9c-29.2-46.9-81.2-78.1-140.5-78.1
			c-59.3,0-111.3,31.2-140.5,78.1c0,0,4.8-43,47.3-104.9c25-21.5,57.6-34.6,93.2-34.6C767.1,684.2,799.7,697.2,824.7,718.8
			L824.7,718.8z"/>
		<path class="st13" d="M875.2,690.7l-50.5,28.1c-20.7-30.3-50.5-65.1-93.2-101.5c0-13.8,0-27,0-39.6c0,0,35,0,92.8-13.5
			c4.8-1.1,9.6-2.4,14.5-3.7C855.8,597.5,869.4,641.4,875.2,690.7z"/>
		<path class="st14" d="M838.9,560.4c-4.9,1.3-9.8,2.6-14.5,3.7c-57.8,13.5-92.8,13.5-92.8,13.5c0-87.3,0-144.8,0-144.8
			c1.4,0.2,2.8,0.4,4.2,0.6C757.6,439.2,804.8,485.8,838.9,560.4z"/>
		<path class="st15" d="M731.5,432.9c0,0,0,57.5,0,144.8c0,0-35,0-92.8-13.5c-4.8-1.1-9.6-2.4-14.5-3.7
			c34.1-74.6,81.3-121.2,103.2-126.9C728.8,433.3,730.1,433.1,731.5,432.9z"/>
		<path class="st16" d="M731.5,577.7c0,12.6,0,25.8,0,39.6c-42.6,36.5-72.4,71.3-93.2,101.5l-50.5-28.1
			c5.7-49.3,19.4-93.3,36.3-130.3c4.9,1.3,9.8,2.6,14.5,3.7C696.5,577.7,731.5,577.7,731.5,577.7z"/>
		<path class="st17" d="M638.4,718.8C595.9,780.7,591,823.7,591,823.7c-3.9-25.3-6-54.4-6-82.9c0-17.2,1-33.9,2.9-50L638.4,718.8
			C638.4,718.8,638.4,718.8,638.4,718.8z"/>
		<path class="st18" d="M624.2,560.4c-21,3.8-60.6,14.4-116.2,62.7c10.2-27.8,27.6-57.3,50.3-84.7
			C578.4,546.1,601.9,554.3,624.2,560.4z"/>
		<path class="st19" d="M727.4,433.5c-21.9,5.7-69.1,52.3-103.2,126.9c-22.3-6.1-45.8-14.3-65.9-21.9
			C600.7,487.2,661.5,443.6,727.4,433.5z"/>
		<path class="st20" d="M731.5,432.9c-1.3,0-2.6,0.2-4.2,0.6c-65.8,10.1-126.6,53.7-169.1,105c-29.3-11.1-51.2-20.9-51.2-20.9
			C566.9,464.9,645.5,432.9,731.5,432.9z"/>
		<path class="st21" d="M624.2,560.4c-16.9,37-30.6,81-36.3,130.3l-86-47.8c1.6-6.4,3.6-13,6.1-19.7l0,0
			C563.6,574.8,603.2,564.2,624.2,560.4z"/>
		<path class="st22" d="M501.9,642.9l86,47.8c-1.9,16.1-2.9,32.8-2.9,50c0,28.5,2.1,57.7,6,82.9c-18-31.3-50.9-53-89.1-55.3l0-0.2
			C496.7,698.8,501.9,642.9,501.9,642.9z"/>
		<path class="st23" d="M501.9,522.2c0,0,0,38,0,120.7c-69,31.7-104.7,72.3-105.6,73.2C409.2,639.9,447.3,572.2,501.9,522.2z"/>
		<path class="st24" d="M501.9,768.2l0,0.2c-2.2-0.1-4.4-0.2-6.7-0.2c-43.3,0-80.8,24.9-98.8,61.2c0.5-2.6,24.5-113.2,105.5-186.5
			C501.9,642.9,496.7,698.8,501.9,768.2z"/>
		<path class="st25" d="M396.4,716.1c0.8-0.9,36.5-41.5,105.6-73.2c-81,73.3-105,183.9-105.5,186.5c0,0,0,0,0,0
			c-3.1-18.4-4.7-37.3-4.7-56.6C391.7,753.5,393.3,734.6,396.4,716.1z"/>
		<g>
			<path class="st26" d="M558.3,538.5c-22.7,27.4-40.1,56.9-50.3,84.7l0,0c-2.4,6.7-4.5,13.3-6.1,19.7c0-82.7,0-120.7,0-120.7
				c1.7-1.6,3.4-3.1,5.2-4.6C507.1,517.6,529,527.4,558.3,538.5z"/>
		</g>
	</g>
	<g>
		<path class="st27" d="M396.4,829.4C396.4,829.4,396.4,829.4,396.4,829.4"/>
		<path class="st27" d="M396.4,829.4c-3.1-18.4-4.7-37.3-4.7-56.6c0-19.3,1.6-38.2,4.7-56.7c12.8-76.3,51-143.9,105.6-193.9
			c1.7-1.6,3.4-3.1,5.1-4.6c59.9-52.7,138.4-84.7,224.5-84.7s164.6,32,224.5,84.7c1.7,1.5,3.5,3.1,5.1,4.6
			c54.6,50,92.8,117.7,105.6,193.9c3.1,18.4,4.7,37.4,4.7,56.7s-1.6,38.2-4.7,56.6c0,0,0,0,0,0"/>
		<path class="st27" d="M591,823.7c-3.9-25.3-6-54.4-6-82.9c0-17.2,1-33.9,2.9-50c5.7-49.3,19.4-93.3,36.3-130.3
			c34.1-74.6,81.3-121.2,103.2-126.9c1.5-0.4,2.9-0.6,4.2-0.6"/>
		<path class="st27" d="M396.4,829.4C396.4,829.4,396.4,829.4,396.4,829.4C396.3,829.4,396.4,829.4,396.4,829.4
			C396.4,829.4,396.4,829.4,396.4,829.4c18.1-36.3,55.6-61.3,98.9-61.3c2.3,0,4.5,0.1,6.7,0.2c38.2,2.3,71.1,24,89.1,55.3"/>
		<path class="st27" d="M591,823.7c29.2-46.9,81.2-78.1,140.5-78.1c59.3,0,111.3,31.2,140.5,78.1"/>
		<path class="st27" d="M872.1,823.7C872.1,823.7,872.1,823.7,872.1,823.7"/>
		<path class="st27" d="M824.7,718.8"/>
		<path class="st27" d="M638.4,718.8c25-21.5,57.6-34.6,93.2-34.6c35.6,0,68.1,13,93.2,34.5"/>
		<path class="st27" d="M396.4,829.4C396.4,829.4,396.4,829.4,396.4,829.4C396.4,829.4,396.4,829.4,396.4,829.4
			c0.6-2.6,24.6-113.3,105.6-186.5c0-82.7,0-120.7,0-120.7"/>
		<path class="st27" d="M638.4,718.8l-50.5-28.1l-86-47.8c0,0-5.2,55.9,0,125.3"/>
		<path class="st27" d="M508,623.2c-2.5,6.7-4.5,13.3-6.1,19.7c-69,31.7-104.7,72.3-105.6,73.2c0,0,0,0,0,0"/>
		<path class="st27" d="M731.5,432.9c-1.4,0.2-2.8,0.4-4.2,0.6c-65.8,10.1-126.6,53.7-169.1,105c-22.7,27.4-40.1,56.9-50.3,84.7"/>
		<path class="st27" d="M591,823.7c0,0,4.8-43,47.3-104.9c0,0,0,0,0,0c20.8-30.3,50.6-65,93.2-101.5"/>
		<path class="st27" d="M507.1,517.6c0,0,21.9,9.8,51.2,20.9c20.1,7.6,43.6,15.8,65.9,21.9c4.9,1.3,9.8,2.6,14.5,3.7
			c57.8,13.5,92.8,13.5,92.8,13.5"/>
		<path class="st27" d="M508,623.2L508,623.2c55.6-48.3,95.2-59,116.2-62.8"/>
		<path class="st27" d="M872.1,823.6c3.9-25.3,6-54.4,6-82.9c0-17.2-1-33.9-2.9-50c-5.7-49.3-19.4-93.3-36.3-130.3
			c-34-74.6-81.3-121.2-103.2-126.9c-1.5-0.4-2.9-0.6-4.2-0.6"/>
		<path class="st27" d="M1066.7,829.4c-18.1-36.3-55.6-61.3-98.9-61.3c-2.3,0-4.5,0.1-6.7,0.2c-38.2,2.3-71.1,24-89.1,55.3
			c0,0,0,0,0,0"/>
		<path class="st27" d="M1066.7,829.4C1066.7,829.4,1066.7,829.4,1066.7,829.4C1066.7,829.4,1066.7,829.4,1066.7,829.4
			c-0.4-1.8-24.2-113-105.6-186.5c0-82.7,0-120.7,0-120.7"/>
		<path class="st27" d="M824.7,718.8l50.5-28.1l86-47.8c0,0,5.2,55.9,0,125.3"/>
		<path class="st27" d="M872.1,823.7C872.1,823.7,872.1,823.7,872.1,823.7L872.1,823.7C872,823.6,872,823.6,872.1,823.7
			c-0.6-1.7-6-44.4-47.4-104.9l0,0c-20.7-30.3-50.5-65.1-93.2-101.5c0-13.8,0-27,0-39.6c0-87.3,0-144.8,0-144.8
			c1.4,0.2,2.8,0.4,4.2,0.6c65.9,10.1,126.6,53.7,169.1,105c22.7,27.4,40.1,56.9,50.3,84.7c2.5,6.7,4.5,13.3,6.1,19.7
			c69.1,31.7,104.8,72.3,105.6,73.2c0,0,0,0,0,0"/>
		<path class="st27" d="M956,517.6c0,0-21.9,9.8-51.2,20.9c-20.1,7.6-43.6,15.8-65.9,21.9c-4.9,1.3-9.8,2.6-14.5,3.7
			c-57.8,13.5-92.8,13.5-92.8,13.5"/>
		<path class="st27" d="M955.1,623.2c-55.6-48.3-95.2-59-116.2-62.8"/>
		<line class="st28" x1="731.5" y1="617.2" x2="731.5" y2="684.2"/>
	</g>
	<g>
		<circle class="st29" cx="526.4" cy="630.4" r="8.9"/>
		<circle class="st29" cx="936.7" cy="630.4" r="8.9"/>
		<circle class="st29" cx="731.5" cy="725" r="8.9"/>
	</g>
	<circle class="st26" cx="458" cy="458.6" r="8.6"/>
	<circle class="st30" cx="471.7" cy="996.5" r="7.5"/>
	<circle class="st30" cx="633.2" cy="898.8" r="7.5"/>
	<circle class="st31" cx="513.4" cy="877.1" r="14.6"/>
	<circle class="st32" cx="950.6" cy="438.6" r="13.5"/>
	<circle class="st33" cx="1102.2" cy="527.7" r="6.1"/>
	<circle class="st34" cx="980.8" cy="886.2" r="9.4"/>
	<rect x="713.4" y="768.2" class="st35" width="36.4" height="306.7"/>
	<path class="st35" d="M862.2,966c0,48.1-31.6,88.8-75.2,102.5v-37.3c24-11.9,40.5-36.6,40.5-65.2c0-28.6-16.5-53.3-40.5-65.2v-37.3
		C830.6,877.2,862.2,917.9,862.2,966z"/>
</g>
</svg>
